<?xml version="1.0" encoding="UTF-8"?>
<svg id="Layer_1" xmlns="http://www.w3.org/2000/svg" version="1.1" viewBox="0 0 800 800">
  <!-- Generator: Adobe Illustrator 30.2.1, SVG Export Plug-In . SVG Version: 2.1.1 Build 1)  -->
  <defs>
    <style>
      .st0 {
        fill: none;
      }

      .st1 {
        fill: #343a40;
      }

      .st2 {
        fill: #565656;
      }

      .st3 {
        fill: #fff;
        stroke: #fff;
        stroke-miterlimit: 10;
      }
    </style>
  </defs>
  <path class="st2" d="M529.7,531.2l-86.5,86.5v89.3l304.3-307L443.2,93v92.1l86.5,86.5v259.6h0ZM593.9,337.2l65.5,64.2-65.5,62.8v-127h0ZM356.8,707v-89.3l-86.5-86.5v-259.6l86.5-86.5v-92.1L52.5,400l304.3,307ZM206.1,464.2l-65.5-62.8,65.5-64.2v127ZM367.9,268.8h65.5v263.7h-65.5v-263.7Z"/>
  <path class="st3" d="M1329.6-245.5l-8.6,8.6v8.8l30.1-30.4-30-30.4v9.1l8.6,8.6-.1,25.7h0ZM1336-264.7l6.5,6.3-6.5,6.2v-12.5h0ZM1312.5-228.1v-8.8l-8.6-8.6v-25.7l8.6-8.6v-9.1l-30.1,30.4,30.1,30.4ZM1297.6-252.1l-6.5-6.2,6.5-6.3v12.5ZM1313.6-271.5h6.5v26.1h-6.5v-26.1Z"/>
  <path class="st1" d="M1329.6-245.5l-8.6,8.6v8.8l30.1-30.4-30-30.4v9.1l8.6,8.6-.1,25.7h0ZM1336-264.7l6.5,6.3-6.5,6.2v-12.5h0ZM1312.5-228.1v-8.8l-8.6-8.6v-25.7l8.6-8.6v-9.1l-30.1,30.4,30.1,30.4ZM1297.6-252.1l-6.5-6.2,6.5-6.3v12.5ZM1313.6-271.5h6.5v26.1h-6.5v-26.1Z"/>
  <rect class="st0" x="1281.2" y="-290" width="71.2" height="63"/>
</svg>